<svg width="41" height="35" viewBox="0 0 41 35" fill="none" xmlns="http://www.w3.org/2000/svg">
<rect x="2.41211" y="3.61719" width="3.61765" height="3.61765" fill="#E7E1FF"/>
<rect y="3.61719" width="3.61765" height="3.61765" fill="#E7E1FF"/>
<rect y="7.23535" width="3.61765" height="3.61765" fill="#E7E1FF"/>
<rect y="10.8525" width="3.61765" height="3.61765" fill="#E7E1FF"/>
<rect y="18.0879" width="3.61765" height="2.41176" fill="#E7E1FF"/>
<rect y="20.5" width="3.61765" height="3.61765" fill="#E7E1FF"/>
<rect y="24.1172" width="3.61765" height="3.61765" fill="#E7E1FF"/>
<rect y="27.7354" width="3.61765" height="3.61765" fill="#E7E1FF"/>
<rect x="2.41211" y="27.7354" width="3.61765" height="3.61765" fill="#E7E1FF"/>
<rect x="6.0293" y="27.7354" width="3.61765" height="3.61765" fill="#E7E1FF"/>
<rect x="6.0293" y="31.3525" width="3.61765" height="3.61765" fill="#E7E1FF"/>
<rect x="9.64746" y="31.3525" width="3.61765" height="3.61765" fill="#E7E1FF"/>
<rect x="13.2646" y="12.0586" width="3.61765" height="3.61765" fill="#E7E1FF"/>
<rect x="13.2646" y="15.6768" width="3.61765" height="3.61765" fill="#E7E1FF"/>
<rect x="24.1172" y="12.0586" width="3.61765" height="3.61765" fill="#E7E1FF"/>
<rect x="24.1172" y="15.6768" width="3.61765" height="3.61765" fill="#E7E1FF"/>
<rect y="14.4707" width="3.61765" height="3.61765" fill="#E7E1FF"/>
<rect x="6.0293" y="3.61719" width="3.61765" height="3.61765" fill="#E7E1FF"/>
<rect x="6.0293" width="3.61765" height="3.61765" fill="#E7E1FF"/>
<rect x="9.64746" width="3.61765" height="3.61765" fill="#E7E1FF"/>
<rect x="37.3828" y="3.61719" width="3.61765" height="3.61765" fill="#E7E1FF"/>
<rect x="37.3828" y="7.23535" width="3.61765" height="3.61765" fill="#E7E1FF"/>
<rect x="37.3828" y="10.8525" width="3.61765" height="3.61765" fill="#E7E1FF"/>
<rect x="37.3828" y="14.4707" width="3.61765" height="3.61765" fill="#E7E1FF"/>
<rect x="37.3828" y="18.0879" width="3.61765" height="2.41176" fill="#E7E1FF"/>
<rect x="37.3828" y="20.5" width="3.61765" height="3.61765" fill="#E7E1FF"/>
<rect x="37.3828" y="24.1172" width="3.61765" height="3.61765" fill="#E7E1FF"/>
<rect x="37.3828" y="27.7354" width="3.61765" height="3.61765" fill="#E7E1FF"/>
<rect x="34.9707" y="27.7354" width="3.61765" height="3.61765" fill="#E7E1FF"/>
<rect x="31.3525" y="27.7354" width="3.61765" height="3.61765" fill="#E7E1FF"/>
<rect x="31.3525" y="31.3525" width="3.61765" height="3.61765" fill="#E7E1FF"/>
<rect x="27.7354" y="31.3525" width="3.61765" height="3.61765" fill="#E7E1FF"/>
<rect x="34.9707" y="3.61719" width="3.61765" height="3.61765" fill="#E7E1FF"/>
<rect x="31.3525" y="3.61719" width="3.61765" height="3.61765" fill="#E7E1FF"/>
<rect x="31.3525" width="3.61765" height="3.61765" fill="#E7E1FF"/>
<rect x="27.7354" width="3.61765" height="3.61765" fill="#E7E1FF"/>
</svg>
