<svg width="152" height="276" viewBox="0 0 152 276" fill="none" xmlns="http://www.w3.org/2000/svg">
<path d="M140.331 199.695H129.536V210.49H140.331V199.695Z" fill="#FFE9D3"/>
<path d="M129.537 199.695H118.742V210.49H129.537V199.695Z" fill="#FFE9D3"/>
<path d="M129.537 188.902H118.742V199.697H129.537V188.902Z" fill="#183159"/>
<path d="M129.537 178.107H118.742V188.902H129.537V178.107Z" fill="#183159"/>
<path d="M129.537 167.312H118.742V178.107H129.537V167.312Z" fill="#183159"/>
<path d="M129.537 124.136H118.742V134.93H129.537V124.136Z" fill="#FFE9D3"/>
<path d="M129.537 113.342H118.742V124.136H129.537V113.342Z" fill="#FFE9D3"/>
<path d="M129.537 102.547H118.742V113.341H129.537V102.547Z" fill="#FFE9D3"/>
<path d="M129.537 91.7529H118.742V102.547H129.537V91.7529Z" fill="#FFE9D3"/>
<path d="M129.537 80.957H118.742V91.7514H129.537V80.957Z" fill="#FFE9D3"/>
<path d="M129.537 70.1631H118.742V80.9575H129.537V70.1631Z" fill="#FFE9D3"/>
<path d="M118.742 264.463H107.947V275.257H118.742V264.463Z" fill="#183159"/>
<path d="M118.742 253.668H107.947V264.462H118.742V253.668Z" fill="#183159"/>
<path d="M118.742 188.902H107.947V199.697H118.742V188.902Z" fill="#183159"/>
<path d="M118.742 178.107H107.947V188.902H118.742V178.107Z" fill="#183159"/>
<path d="M118.742 167.312H107.947V178.107H118.742V167.312Z" fill="#183159"/>
<path d="M118.742 156.519H107.947V167.313H118.742V156.519Z" fill="#183159"/>
<path d="M118.742 145.724H107.947V156.518H118.742V145.724Z" fill="#183159"/>
<path d="M118.742 124.136H107.947V134.93H118.742V124.136Z" fill="#FFE9D3"/>
<path d="M118.742 113.342H107.947V124.136H118.742V113.342Z" fill="#F8D8E8"/>
<path d="M118.742 102.547H107.947V113.341H118.742V102.547Z" fill="#FFE9D3"/>
<path d="M118.742 91.7529H107.947V102.547H118.742V91.7529Z" fill="#183159"/>
<path d="M118.742 80.957H107.947V91.7514H118.742V80.957Z" fill="#FFE9D3"/>
<path d="M118.742 70.1631H107.947V80.9575H118.742V70.1631Z" fill="#FFE9D3"/>
<path d="M118.742 59.3701H107.947V70.1645H118.742V59.3701Z" fill="#FFE9D3"/>
<path d="M107.947 264.463H97.1518V275.257H107.947V264.463Z" fill="#183159"/>
<path d="M107.947 253.668H97.1518V264.462H107.947V253.668Z" fill="#183159"/>
<path d="M107.947 242.874H97.1518V253.668H107.947V242.874Z" fill="#FFE9D3"/>
<path d="M107.947 232.079H97.1518V242.873H107.947V232.079Z" fill="#20438B"/>
<path d="M107.947 221.285H97.1518V232.08H107.947V221.285Z" fill="#20438B"/>
<path d="M107.947 210.49H97.1518V221.285H107.947V210.49Z" fill="#20438B"/>
<path d="M107.947 199.695H97.1518V210.49H107.947V199.695Z" fill="#20438B"/>
<path d="M107.947 188.902H97.1518V199.697H107.947V188.902Z" fill="#20438B"/>
<path d="M107.947 178.107H97.1518V188.902H107.947V178.107Z" fill="#183159"/>
<path d="M107.947 167.312H97.1518V178.107H107.947V167.312Z" fill="#183159"/>
<path d="M107.947 156.519H97.1518V167.313H107.947V156.519Z" fill="#183159"/>
<path d="M107.947 145.724H97.1518V156.518H107.947V145.724Z" fill="#183159"/>
<path d="M107.947 134.93H97.1518V145.724H107.947V134.93Z" fill="#183159"/>
<path d="M107.947 124.136H97.1518V134.93H107.947V124.136Z" fill="#FFE9D3"/>
<path d="M107.947 113.342H97.1518V124.136H107.947V113.342Z" fill="#F8D8E8"/>
<path d="M107.947 102.547H97.1518V113.341H107.947V102.547Z" fill="#183159"/>
<path d="M107.947 91.7529H97.1518V102.547H107.947V91.7529Z" fill="#183159"/>
<path d="M107.947 80.957H97.1518V91.7514H107.947V80.957Z" fill="#FFE9D3"/>
<path d="M107.947 70.1631H97.1518V80.9575H107.947V70.1631Z" fill="#FFE9D3"/>
<path d="M107.947 59.3701H97.1518V70.1645H107.947V59.3701Z" fill="#FFE9D3"/>
<path d="M97.1528 264.463H86.3581V275.257H97.1528V264.463Z" fill="#183159"/>
<path d="M97.1528 253.668H86.3581V264.462H97.1528V253.668Z" fill="#183159"/>
<path d="M97.1528 242.874H86.3581V253.668H97.1528V242.874Z" fill="#FFE9D3"/>
<path d="M97.1528 232.079H86.3581V242.873H97.1528V232.079Z" fill="#20438B"/>
<path d="M97.1528 221.285H86.3581V232.08H97.1528V221.285Z" fill="#20438B"/>
<path d="M97.1528 210.49H86.3581V221.285H97.1528V210.49Z" fill="#20438B"/>
<path d="M97.1528 199.695H86.3581V210.49H97.1528V199.695Z" fill="#20438B"/>
<path d="M97.1528 188.902H86.3581V199.697H97.1528V188.902Z" fill="#20438B"/>
<path d="M97.1528 178.107H86.3581V188.902H97.1528V178.107Z" fill="#183159"/>
<path d="M97.1528 167.312H86.3581V178.107H97.1528V167.312Z" fill="#183159"/>
<path d="M97.1528 156.519H86.3581V167.313H97.1528V156.519Z" fill="#183159"/>
<path d="M97.1528 145.724H86.3581V156.518H97.1528V145.724Z" fill="#183159"/>
<path d="M97.1528 134.93H86.3581V145.724H97.1528V134.93Z" fill="#183159"/>
<path d="M97.1528 124.136H86.3581V134.93H97.1528V124.136Z" fill="#FFE9D3"/>
<path d="M97.1528 113.342H86.3581V124.136H97.1528V113.342Z" fill="#FFE9D3"/>
<path d="M97.1528 102.547H86.3581V113.341H97.1528V102.547Z" fill="#FFE9D3"/>
<path d="M97.1528 91.7529H86.3581V102.547H97.1528V91.7529Z" fill="#FFE9D3"/>
<path d="M97.1528 80.957H86.3581V91.7514H97.1528V80.957Z" fill="#FFE9D3"/>
<path d="M97.1528 70.1631H86.3581V80.9575H97.1528V70.1631Z" fill="#FFE9D3"/>
<path d="M97.1528 59.3701H86.3581V70.1645H97.1528V59.3701Z" fill="#FFE9D3"/>
<path d="M86.3565 199.695H75.5618V210.49H86.3565V199.695Z" fill="#20438B"/>
<path d="M86.3565 188.902H75.5618V199.697H86.3565V188.902Z" fill="#20438B"/>
<path d="M86.3565 178.107H75.5618V188.902H86.3565V178.107Z" fill="#183159"/>
<path d="M86.3565 167.312H75.5618V178.107H86.3565V167.312Z" fill="#183159"/>
<path d="M86.3565 156.519H75.5618V167.313H86.3565V156.519Z" fill="#183159"/>
<path d="M86.3565 145.724H75.5618V156.518H86.3565V145.724Z" fill="#183159"/>
<path d="M86.3565 134.93H75.5618V145.724H86.3565V134.93Z" fill="#FFE9D3"/>
<path d="M86.3565 124.136H75.5618V134.93H86.3565V124.136Z" fill="#FFE9D3"/>
<path d="M86.3565 113.342H75.5618V124.136H86.3565V113.342Z" fill="#FFE9D3"/>
<path d="M86.3565 102.547H75.5618V113.341H86.3565V102.547Z" fill="#FFE9D3"/>
<path d="M86.3565 91.7529H75.5618V102.547H86.3565V91.7529Z" fill="#FFE9D3"/>
<path d="M86.3565 80.957H75.5618V91.7514H86.3565V80.957Z" fill="#FFE9D3"/>
<path d="M86.3565 70.1631H75.5618V80.9575H86.3565V70.1631Z" fill="#FFE9D3"/>
<path d="M86.3565 59.3701H75.5618V70.1645H86.3565V59.3701Z" fill="#FFE9D3"/>
<path d="M75.5619 199.695H64.7672V210.49H75.5619V199.695Z" fill="#20438B"/>
<path d="M75.5619 188.902H64.7672V199.697H75.5619V188.902Z" fill="#20438B"/>
<path d="M75.5619 178.107H64.7672V188.902H75.5619V178.107Z" fill="#183159"/>
<path d="M75.5619 167.312H64.7672V178.107H75.5619V167.312Z" fill="#183159"/>
<path d="M75.5619 156.519H64.7672V167.313H75.5619V156.519Z" fill="#183159"/>
<path d="M75.5619 145.724H64.7672V156.518H75.5619V145.724Z" fill="#183159"/>
<path d="M75.5619 134.93H64.7672V145.724H75.5619V134.93Z" fill="#FFE9D3"/>
<path d="M75.5619 124.136H64.7672V134.93H75.5619V124.136Z" fill="#FFE9D3"/>
<path d="M75.5619 113.342H64.7672V124.136H75.5619V113.342Z" fill="#FFE9D3"/>
<path d="M75.5619 102.547H64.7672V113.341H75.5619V102.547Z" fill="#FFE9D3"/>
<path d="M75.5619 91.7529H64.7672V102.547H75.5619V91.7529Z" fill="#FFE9D3"/>
<path d="M75.5619 80.957H64.7672V91.7514H75.5619V80.957Z" fill="#FFE9D3"/>
<path d="M75.5619 70.1631H64.7672V80.9575H75.5619V70.1631Z" fill="#FFE9D3"/>
<path d="M75.5619 59.3701H64.7672V70.1645H75.5619V59.3701Z" fill="#FFE9D3"/>
<path d="M64.7682 264.463H53.9735V275.257H64.7682V264.463Z" fill="#183159"/>
<path d="M64.7682 253.668H53.9735V264.462H64.7682V253.668Z" fill="#183159"/>
<path d="M64.7682 242.874H53.9735V253.668H64.7682V242.874Z" fill="#FFE9D3"/>
<path d="M64.7682 232.079H53.9735V242.873H64.7682V232.079Z" fill="#20438B"/>
<path d="M64.7682 221.285H53.9735V232.08H64.7682V221.285Z" fill="#20438B"/>
<path d="M64.7682 210.49H53.9735V221.285H64.7682V210.49Z" fill="#20438B"/>
<path d="M64.7682 199.695H53.9735V210.49H64.7682V199.695Z" fill="#20438B"/>
<path d="M64.7682 188.902H53.9735V199.697H64.7682V188.902Z" fill="#20438B"/>
<path d="M64.7682 178.107H53.9735V188.902H64.7682V178.107Z" fill="#183159"/>
<path d="M64.7682 167.312H53.9735V178.107H64.7682V167.312Z" fill="#183159"/>
<path d="M64.7682 156.519H53.9735V167.313H64.7682V156.519Z" fill="#183159"/>
<path d="M64.7682 145.724H53.9735V156.518H64.7682V145.724Z" fill="#183159"/>
<path d="M64.7682 134.93H53.9735V145.724H64.7682V134.93Z" fill="#183159"/>
<path d="M64.7682 124.136H53.9735V134.93H64.7682V124.136Z" fill="#FFE9D3"/>
<path d="M64.7682 113.342H53.9735V124.136H64.7682V113.342Z" fill="#FFE9D3"/>
<path d="M64.7682 102.547H53.9735V113.341H64.7682V102.547Z" fill="#FFE9D3"/>
<path d="M64.7682 91.7529H53.9735V102.547H64.7682V91.7529Z" fill="#FFE9D3"/>
<path d="M64.7682 80.957H53.9735V91.7514H64.7682V80.957Z" fill="#FFE9D3"/>
<path d="M64.7682 70.1631H53.9735V80.9575H64.7682V70.1631Z" fill="#FFE9D3"/>
<path d="M64.7682 59.3701H53.9735V70.1645H64.7682V59.3701Z" fill="#FFE9D3"/>
<path d="M53.9736 264.463H43.1789V275.257H53.9736V264.463Z" fill="#183159"/>
<path d="M53.9736 253.668H43.1789V264.462H53.9736V253.668Z" fill="#183159"/>
<path d="M53.9736 242.874H43.1789V253.668H53.9736V242.874Z" fill="#FFE9D3"/>
<path d="M53.9736 232.079H43.1789V242.873H53.9736V232.079Z" fill="#20438B"/>
<path d="M53.9736 221.285H43.1789V232.08H53.9736V221.285Z" fill="#20438B"/>
<path d="M53.9736 210.49H43.1789V221.285H53.9736V210.49Z" fill="#20438B"/>
<path d="M53.9736 199.695H43.1789V210.49H53.9736V199.695Z" fill="#20438B"/>
<path d="M53.9736 188.902H43.1789V199.697H53.9736V188.902Z" fill="#20438B"/>
<path d="M53.9736 178.107H43.1789V188.902H53.9736V178.107Z" fill="#183159"/>
<path d="M53.9736 167.312H43.1789V178.107H53.9736V167.312Z" fill="#183159"/>
<path d="M53.9736 156.519H43.1789V167.313H53.9736V156.519Z" fill="#183159"/>
<path d="M53.9736 145.724H43.1789V156.518H53.9736V145.724Z" fill="#183159"/>
<path d="M53.9736 134.93H43.1789V145.724H53.9736V134.93Z" fill="#183159"/>
<path d="M53.9736 124.136H43.1789V134.93H53.9736V124.136Z" fill="#FFE9D3"/>
<path d="M53.9736 113.342H43.1789V124.136H53.9736V113.342Z" fill="#F8D8E8"/>
<path d="M53.9736 102.547H43.1789V113.341H53.9736V102.547Z" fill="#183159"/>
<path d="M53.9736 91.7529H43.1789V102.547H53.9736V91.7529Z" fill="#183159"/>
<path d="M53.9736 80.957H43.1789V91.7514H53.9736V80.957Z" fill="#FFE9D3"/>
<path d="M53.9736 70.1631H43.1789V80.9575H53.9736V70.1631Z" fill="#FFE9D3"/>
<path d="M53.9736 59.3701H43.1789V70.1645H53.9736V59.3701Z" fill="#FFE9D3"/>
<path d="M43.1782 264.463H32.3835V275.257H43.1782V264.463Z" fill="#183159"/>
<path d="M43.1782 253.668H32.3835V264.462H43.1782V253.668Z" fill="#183159"/>
<path d="M43.1782 188.902H32.3835V199.697H43.1782V188.902Z" fill="#183159"/>
<path d="M43.1782 178.107H32.3835V188.902H43.1782V178.107Z" fill="#183159"/>
<path d="M43.1782 167.312H32.3835V178.107H43.1782V167.312Z" fill="#183159"/>
<path d="M43.1782 156.519H32.3835V167.313H43.1782V156.519Z" fill="#183159"/>
<path d="M43.1782 145.724H32.3835V156.518H43.1782V145.724Z" fill="#183159"/>
<path d="M43.1782 124.136H32.3835V134.93H43.1782V124.136Z" fill="#FFE9D3"/>
<path d="M43.1782 113.342H32.3835V124.136H43.1782V113.342Z" fill="#F8D8E8"/>
<path d="M43.1782 102.547H32.3835V113.341H43.1782V102.547Z" fill="#FFE9D3"/>
<path d="M43.1782 91.7529H32.3835V102.547H43.1782V91.7529Z" fill="#183159"/>
<path d="M43.1782 80.957H32.3835V91.7514H43.1782V80.957Z" fill="#FFE9D3"/>
<path d="M43.1782 70.1631H32.3835V80.9575H43.1782V70.1631Z" fill="#FFE9D3"/>
<path d="M43.1782 59.3701H32.3835V70.1645H43.1782V59.3701Z" fill="#FFE9D3"/>
<path d="M32.3845 199.695H21.5898V210.49H32.3845V199.695Z" fill="#FFE9D3"/>
<path d="M32.3845 188.902H21.5898V199.697H32.3845V188.902Z" fill="#183159"/>
<path d="M32.3845 178.107H21.5898V188.902H32.3845V178.107Z" fill="#183159"/>
<path d="M32.3845 167.312H21.5898V178.107H32.3845V167.312Z" fill="#183159"/>
<path d="M32.3845 124.136H21.5898V134.93H32.3845V124.136Z" fill="#FFE9D3"/>
<path d="M32.3845 113.342H21.5898V124.136H32.3845V113.342Z" fill="#FFE9D3"/>
<path d="M32.3845 102.547H21.5898V113.341H32.3845V102.547Z" fill="#FFE9D3"/>
<path d="M32.3845 91.7529H21.5898V102.547H32.3845V91.7529Z" fill="#FFE9D3"/>
<path d="M32.3845 80.957H21.5898V91.7514H32.3845V80.957Z" fill="#FFE9D3"/>
<path d="M32.3845 70.1631H21.5898V80.9575H32.3845V70.1631Z" fill="#FFE9D3"/>
<path d="M21.589 199.695H10.7943V210.49H21.589V199.695Z" fill="#FFE9D3"/>
<path d="M151.127 118.738H140.332V129.533H151.127V118.738Z" fill="#183159"/>
<path d="M151.127 107.945H140.332V118.74H151.127V107.945Z" fill="#183159"/>
<path d="M151.127 97.1494H140.332V107.944H151.127V97.1494Z" fill="#183159"/>
<path d="M151.127 86.3545H140.332V97.1489H151.127V86.3545Z" fill="#C2BACD"/>
<path d="M151.127 75.5615H140.332V86.3559H151.127V75.5615Z" fill="#183159"/>
<path d="M151.127 64.7656H140.332V75.56H151.127V64.7656Z" fill="#183159"/>
<path d="M151.127 53.9717H140.332V64.7661H151.127V53.9717Z" fill="#183159"/>
<path d="M151.127 43.1777H140.332V53.9721H151.127V43.1777Z" fill="#183159"/>
<path d="M140.331 129.532H129.537V140.327H140.331V129.532Z" fill="#20438B"/>
<path d="M140.331 118.738H129.537V129.533H140.331V118.738Z" fill="#20438B"/>
<path d="M140.331 107.945H129.537V118.74H140.331V107.945Z" fill="#20438B"/>
<path d="M140.331 97.1494H129.537V107.944H140.331V97.1494Z" fill="#20438B"/>
<path d="M140.331 86.3545H129.537V97.1489H140.331V86.3545Z" fill="#C2BACD"/>
<path d="M140.331 75.5615H129.537V86.3559H140.331V75.5615Z" fill="#183159"/>
<path d="M140.331 64.7656H129.537V75.56H140.331V64.7656Z" fill="#20438B"/>
<path d="M140.331 53.9717H129.537V64.7661H140.331V53.9717Z" fill="#20438B"/>
<path d="M140.331 43.1777H129.537V53.9721H140.331V43.1777Z" fill="#20438B"/>
<path d="M140.331 32.3838H129.537V43.1782H140.331V32.3838Z" fill="#20438B"/>
<path d="M140.331 21.5879H129.537V32.3823H140.331V21.5879Z" fill="#20438B"/>
<path d="M129.538 129.532H118.743V140.327H129.538V129.532Z" fill="#183159"/>
<path d="M129.538 118.738H118.743V129.533H129.538V118.738Z" fill="#183159"/>
<path d="M129.538 107.945H118.743V118.74H129.538V107.945Z" fill="#20438B"/>
<path d="M129.538 97.1494H118.743V107.944H129.538V97.1494Z" fill="#20438B"/>
<path d="M129.538 86.3545H118.743V97.1489H129.538V86.3545Z" fill="#20438B"/>
<path d="M129.538 75.5615H118.743V86.3559H129.538V75.5615Z" fill="#20438B"/>
<path d="M129.538 64.7656H118.743V75.56H129.538V64.7656Z" fill="#183159"/>
<path d="M129.538 53.9717H118.743V64.7661H129.538V53.9717Z" fill="#20438B"/>
<path d="M129.538 43.1777H118.743V53.9721H129.538V43.1777Z" fill="#20438B"/>
<path d="M129.538 32.3838H118.743V43.1782H129.538V32.3838Z" fill="#20438B"/>
<path d="M129.538 21.5879H118.743V32.3823H129.538V21.5879Z" fill="#183159"/>
<path d="M129.538 10.7939H118.743V21.5883H129.538V10.7939Z" fill="#20438B"/>
<path d="M118.743 129.532H107.948V140.327H118.743V129.532Z" fill="#183159"/>
<path d="M118.743 75.5615H107.948V86.3559H118.743V75.5615Z" fill="#20438B"/>
<path d="M118.743 64.7656H107.948V75.56H118.743V64.7656Z" fill="#20438B"/>
<path d="M118.743 53.9717H107.948V64.7661H118.743V53.9717Z" fill="#183159"/>
<path d="M118.743 43.1777H107.948V53.9721H118.743V43.1777Z" fill="white"/>
<path d="M118.743 32.3838H107.948V43.1782H118.743V32.3838Z" fill="#20438B"/>
<path d="M118.743 21.5879H107.948V32.3823H118.743V21.5879Z" fill="#183159"/>
<path d="M118.743 10.7939H107.948V21.5883H118.743V10.7939Z" fill="#20438B"/>
<path d="M118.743 0H107.948V10.7944H118.743V0Z" fill="#20438B"/>
<path d="M107.948 75.5615H97.153V86.3559H107.948V75.5615Z" fill="#20438B"/>
<path d="M107.948 64.7656H97.153V75.56H107.948V64.7656Z" fill="#20438B"/>
<path d="M107.948 53.9717H97.153V64.7661H107.948V53.9717Z" fill="white"/>
<path d="M107.948 43.1777H97.153V53.9721H107.948V43.1777Z" fill="#20438B"/>
<path d="M107.948 32.3838H97.153V43.1782H107.948V32.3838Z" fill="#20438B"/>
<path d="M107.948 21.5879H97.153V32.3823H107.948V21.5879Z" fill="#183159"/>
<path d="M107.948 10.7939H97.153V21.5883H107.948V10.7939Z" fill="#183159"/>
<path d="M107.948 0H97.153V10.7944H107.948V0Z" fill="#20438B"/>
<path d="M97.1532 75.5615H86.3585V86.3559H97.1532V75.5615Z" fill="#20438B"/>
<path d="M97.1532 64.7656H86.3585V75.56H97.1532V64.7656Z" fill="#20438B"/>
<path d="M97.1532 53.9717H86.3585V64.7661H97.1532V53.9717Z" fill="#20438B"/>
<path d="M97.1532 43.1777H86.3585V53.9721H97.1532V43.1777Z" fill="#20438B"/>
<path d="M97.1532 32.3838H86.3585V43.1782H97.1532V32.3838Z" fill="#20438B"/>
<path d="M97.1532 21.5879H86.3585V32.3823H97.1532V21.5879Z" fill="#183159"/>
<path d="M97.1532 10.7939H86.3585V21.5883H97.1532V10.7939Z" fill="#183159"/>
<path d="M97.1532 0H86.3585V10.7944H97.1532V0Z" fill="#20438B"/>
<path d="M86.3595 75.5615H75.5648V86.3559H86.3595V75.5615Z" fill="#20438B"/>
<path d="M86.3595 64.7656H75.5648V75.56H86.3595V64.7656Z" fill="#20438B"/>
<path d="M86.3595 53.9717H75.5648V64.7661H86.3595V53.9717Z" fill="white"/>
<path d="M86.3595 43.1777H75.5648V53.9721H86.3595V43.1777Z" fill="#20438B"/>
<path d="M86.3595 32.3838H75.5648V43.1782H86.3595V32.3838Z" fill="#20438B"/>
<path d="M86.3595 21.5879H75.5648V32.3823H86.3595V21.5879Z" fill="#183159"/>
<path d="M86.3595 10.7939H75.5648V21.5883H86.3595V10.7939Z" fill="#183159"/>
<path d="M86.3595 0H75.5648V10.7944H86.3595V0Z" fill="#20438B"/>
<path d="M75.5649 75.5615H64.7702V86.3559H75.5649V75.5615Z" fill="#20438B"/>
<path d="M75.5649 64.7656H64.7702V75.56H75.5649V64.7656Z" fill="#20438B"/>
<path d="M75.5649 53.9717H64.7702V64.7661H75.5649V53.9717Z" fill="#20438B"/>
<path d="M75.5649 43.1777H64.7702V53.9721H75.5649V43.1777Z" fill="#20438B"/>
<path d="M75.5649 32.3838H64.7702V43.1782H75.5649V32.3838Z" fill="#20438B"/>
<path d="M75.5649 21.5879H64.7702V32.3823H75.5649V21.5879Z" fill="#183159"/>
<path d="M75.5649 10.7939H64.7702V21.5883H75.5649V10.7939Z" fill="#183159"/>
<path d="M75.5649 0H64.7702V10.7944H75.5649V0Z" fill="#20438B"/>
<path d="M64.7694 75.5615H53.9747V86.3559H64.7694V75.5615Z" fill="#20438B"/>
<path d="M64.7694 64.7656H53.9747V75.56H64.7694V64.7656Z" fill="#20438B"/>
<path d="M64.7694 53.9717H53.9747V64.7661H64.7694V53.9717Z" fill="white"/>
<path d="M64.7694 43.1777H53.9747V53.9721H64.7694V43.1777Z" fill="#20438B"/>
<path d="M64.7694 32.3838H53.9747V43.1782H64.7694V32.3838Z" fill="#20438B"/>
<path d="M64.7694 21.5879H53.9747V32.3823H64.7694V21.5879Z" fill="#183159"/>
<path d="M64.7694 10.7939H53.9747V21.5883H64.7694V10.7939Z" fill="#183159"/>
<path d="M64.7694 0H53.9747V10.7944H64.7694V0Z" fill="#20438B"/>
<path d="M53.974 75.5615H43.1793V86.3559H53.974V75.5615Z" fill="#20438B"/>
<path d="M53.974 64.7656H43.1793V75.56H53.974V64.7656Z" fill="#20438B"/>
<path d="M53.974 53.9717H43.1793V64.7661H53.974V53.9717Z" fill="#183159"/>
<path d="M53.974 43.1777H43.1793V53.9721H53.974V43.1777Z" fill="white"/>
<path d="M53.974 32.3838H43.1793V43.1782H53.974V32.3838Z" fill="#20438B"/>
<path d="M53.974 21.5879H43.1793V32.3823H53.974V21.5879Z" fill="#183159"/>
<path d="M53.974 10.7939H43.1793V21.5883H53.974V10.7939Z" fill="#183159"/>
<path d="M53.974 0H43.1793V10.7944H53.974V0Z" fill="#20438B"/>
<path d="M43.1786 129.532H32.3839V140.327H43.1786V129.532Z" fill="#183159"/>
<path d="M43.1786 75.5615H32.3839V86.3559H43.1786V75.5615Z" fill="#20438B"/>
<path d="M43.1786 64.7656H32.3839V75.56H43.1786V64.7656Z" fill="#183159"/>
<path d="M43.1786 53.9717H32.3839V64.7661H43.1786V53.9717Z" fill="#20438B"/>
<path d="M43.1786 43.1777H32.3839V53.9721H43.1786V43.1777Z" fill="#20438B"/>
<path d="M43.1786 32.3838H32.3839V43.1782H43.1786V32.3838Z" fill="#20438B"/>
<path d="M43.1786 21.5879H32.3839V32.3823H43.1786V21.5879Z" fill="#183159"/>
<path d="M43.1786 10.7939H32.3839V21.5883H43.1786V10.7939Z" fill="#20438B"/>
<path d="M43.1786 0H32.3839V10.7944H43.1786V0Z" fill="#20438B"/>
<path d="M32.3857 129.532H21.591V140.327H32.3857V129.532Z" fill="#183159"/>
<path d="M32.3857 118.738H21.591V129.533H32.3857V118.738Z" fill="#183159"/>
<path d="M32.3857 107.945H21.591V118.74H32.3857V107.945Z" fill="#20438B"/>
<path d="M32.3857 97.1494H21.591V107.944H32.3857V97.1494Z" fill="#20438B"/>
<path d="M32.3857 86.3545H21.591V97.1489H32.3857V86.3545Z" fill="#20438B"/>
<path d="M32.3857 75.5615H21.591V86.3559H32.3857V75.5615Z" fill="#20438B"/>
<path d="M32.3857 64.7656H21.591V75.56H32.3857V64.7656Z" fill="#20438B"/>
<path d="M32.3857 53.9717H21.591V64.7661H32.3857V53.9717Z" fill="#20438B"/>
<path d="M32.3857 43.1777H21.591V53.9721H32.3857V43.1777Z" fill="#20438B"/>
<path d="M32.3857 32.3838H21.591V43.1782H32.3857V32.3838Z" fill="#20438B"/>
<path d="M32.3857 21.5879H21.591V32.3823H32.3857V21.5879Z" fill="#20438B"/>
<path d="M32.3857 10.7939H21.591V21.5883H32.3857V10.7939Z" fill="#20438B"/>
<path d="M21.5903 129.532H10.7956V140.327H21.5903V129.532Z" fill="#20438B"/>
<path d="M21.5903 118.738H10.7956V129.533H21.5903V118.738Z" fill="#20438B"/>
<path d="M21.5903 107.945H10.7956V118.74H21.5903V107.945Z" fill="#20438B"/>
<path d="M21.5903 97.1494H10.7956V107.944H21.5903V97.1494Z" fill="#20438B"/>
<path d="M21.5903 86.3545H10.7956V97.1489H21.5903V86.3545Z" fill="#C2BACD"/>
<path d="M21.5903 75.5615H10.7956V86.3559H21.5903V75.5615Z" fill="#20438B"/>
<path d="M21.5903 64.7656H10.7956V75.56H21.5903V64.7656Z" fill="#20438B"/>
<path d="M21.5903 53.9717H10.7956V64.7661H21.5903V53.9717Z" fill="#20438B"/>
<path d="M21.5903 43.1777H10.7956V53.9721H21.5903V43.1777Z" fill="#20438B"/>
<path d="M21.5903 32.3838H10.7956V43.1782H21.5903V32.3838Z" fill="#20438B"/>
<path d="M21.5903 21.5879H10.7956V32.3823H21.5903V21.5879Z" fill="#20438B"/>
<path d="M10.7948 118.738H0.00012207V129.533H10.7948V118.738Z" fill="#20438B"/>
<path d="M10.7948 107.945H0.00012207V118.74H10.7948V107.945Z" fill="#20438B"/>
<path d="M10.7948 97.1494H0.00012207V107.944H10.7948V97.1494Z" fill="#183159"/>
<path d="M10.7948 86.3545H0.00012207V97.1489H10.7948V86.3545Z" fill="#C2BACD"/>
<path d="M10.7948 75.5615H0.00012207V86.3559H10.7948V75.5615Z" fill="#183159"/>
<path d="M10.7948 64.7656H0.00012207V75.56H10.7948V64.7656Z" fill="#183159"/>
<path d="M10.7948 53.9717H0.00012207V64.7661H10.7948V53.9717Z" fill="#183159"/>
<path d="M10.7948 43.1777H0.00012207V53.9721H10.7948V43.1777Z" fill="#183159"/>
</svg>
